<?xml version="1.0"?>
<svg xmlns="http://www.w3.org/2000/svg" xmlns:xlink="http://www.w3.org/1999/xlink" xmlns:svgjs="http://svgjs.com/svgjs" version="1.1" width="512" height="512" x="0" y="0" viewBox="0 0 512.02686 512" style="enable-background:new 0 0 512 512" xml:space="preserve" class=""><g><path xmlns="http://www.w3.org/2000/svg" d="m185.40625 59.089844c0 8.828125-8.828125 8.828125-35.308594 17.65625-26.484375 8.824218-44.140625-26.484375-35.3125-35.3125 8.050782-6.972656 16.949219-12.902344 26.484375-17.65625l49.34375-22.207032c5.863281-2.640624 12.699219-1.882812 17.839844 1.976563l54.636719 67.089844" fill="#fdd7ad" data-original="#fdd7ad" style="" class=""/><path xmlns="http://www.w3.org/2000/svg" d="m291.335938 235.625-90.214844 96.128906c-3.089844-2.644531-5.652344-4.851562-7.328125-6.53125-8.5625-8.472656-69.121094-17.035156-97.988281-32.042968-3.9375-1.921876-7.566407-4.421876-10.769532-7.414063-1.410156-1.414063-2.910156-2.914063-4.589844-4.503906-21.980468-21.980469-65.324218-65.414063-74.503906-74.59375l35.308594 5.210937 42.019531-111.933594 119.96875-64.972656 59.851563 35.664063c6.667968 5 10.59375 12.851562 10.59375 21.183593l8.824218 72.125c.019532.738282.078126 1.472657.179688 2.203126zm0 0" fill="#fdd7ad" data-original="#fdd7ad" style="" class=""/><path xmlns="http://www.w3.org/2000/svg" d="m185.40625 59.035156c0 6.355469-4.589844 8.121094-17.125 12.007813h-.089844c-4.765625 1.410156-10.679687 3.175781-18.09375 5.648437-25.160156 8.386719-42.285156-22.953125-36.460937-33.722656 3.886719 12.800781 18.007812 28.074219 36.460937 21.894531 24.804688-8.296875 34.160156-8.828125 35.21875-16.066406zm0 0" fill="#cbb292" data-original="#cbb292" style=""/><path xmlns="http://www.w3.org/2000/svg" d="m350.914062 500.46875c2.214844 2.71875 11.042969 11.546875 11.042969 11.546875h150.070313v-105.929687c-13.921875-11.585938-28.945313-21.78125-44.851563-30.4375zm0 0" fill="#fdd7ad" data-original="#fdd7ad" style="" class=""/><path xmlns="http://www.w3.org/2000/svg" d="m317.28125 233.621094 134.894531 106.925781c14.160157 11.113281 17.660157 31.113281 8.113281 46.371094-11.375 18.023437-23.753906 35.390625-37.078124 52.023437-17.496094 21.003906-38.023438 39.285156-60.910157 54.246094-14.964843 10.054688-35.105469 7.222656-46.714843-6.578125l-104.023438-124.195313c-10.335938-12.246093-11.113281-29.921874-1.890625-43.027343 11.40625-16.882813 23.945313-32.980469 37.527344-48.171875 15.210937-15.082032 32.203125-28.25 50.601562-39.21875 6.238281-3.375 13.886719-2.738282 19.480469 1.625zm0 0" fill="#06d6a0" data-original="#2fa8cc" style="" class=""/><g xmlns="http://www.w3.org/2000/svg" fill="#cbb292"><path d="m109.929688 270.050781c-7.308594 3.40625-12.203126 10.496094-12.800782 18.539063.023438 1.625-.4375 3.222656-1.324218 4.589844-3.9375-1.921876-7.566407-4.421876-10.769532-7.414063-1.410156-1.414063-2.910156-2.914063-4.589844-4.503906 2.722657-11.800781 10.640626-21.734375 21.539063-27.011719 2.082031-1.0625 4.503906-1.253906 6.726563-.523438 2.21875.730469 4.058593 2.316407 5.101562 4.40625 2.203125 4.367188.46875 9.691407-3.882812 11.917969zm0 0" fill="#cbb292" data-original="#cbb292" style=""/><path d="m229.542969 249.835938c-.707031-.003907-1.410157-.089844-2.101563-.257813-29.480468-7.191406-55.769531-57.226563-58.667968-62.914063-2.09375-4.320312-.34375-9.523437 3.933593-11.707031 4.277344-2.183593 9.515625-.546875 11.789063 3.683594 9.550781 18.679687 30.800781 49.804687 47.132812 53.789063 4.347656 1.050781 7.222656 5.1875 6.6875 9.628906-.53125 4.441406-4.300781 7.78125-8.773437 7.777344zm0 0" fill="#cbb292" data-original="#cbb292" style=""/><path d="m176.578125 103.472656c-.324219 7.007813-4.457031 13.273438-10.769531 16.332032l-.089844.089843c-4.871094 2.683594-10.148438 4.558594-15.621094 5.5625l-97.105468-51.113281c1.667968-7.488281 4.558593-14.644531 8.5625-21.1875 3.601562-6.652344 10.371093-10.988281 17.921874-11.476562 11.757813.761718 23.222657 4.011718 33.632813 9.535156l39.722656 24.628906 14.917969 9.976562s8.828125 0 8.828125 17.652344zm0 0" fill="#cbb292" data-original="#cbb292" style=""/></g><path xmlns="http://www.w3.org/2000/svg" d="m167.574219 112.480469c.035156 2.550781-.574219 5.070312-1.765625 7.324219l-.089844.089843c-4.871094 2.683594-10.148438 4.558594-15.621094 5.5625l-97.105468-51.113281c1.667968-7.488281 4.558593-14.644531 8.5625-21.1875 2.695312-1.609375 5.777343-2.460938 8.917968-2.472656 11.757813.761718 23.222656 4.011718 33.632813 9.535156l39.722656 24.628906 14.917969 9.976563s8.828125 0 8.828125 17.65625zm0 0" fill="#fdd7ad" data-original="#fdd7ad" style="" class=""/><path xmlns="http://www.w3.org/2000/svg" d="m167.75 147.613281c-.089844 6.519531-4.308594 12.265625-10.503906 14.300781-5.070313 2.097657-10.488282 3.238282-15.976563 3.351563l-115.554687-48.636719c-3.1875-9.339844-3.125-19.480468.175781-28.78125h.089844c2-4.242187 5.394531-7.671875 9.621093-9.707031 19.773438-9.886719 39.546876 0 69.207032 19.773437 15.910156 10.804688 32.414062 20.707032 49.4375 29.660157l4.675781 2.472656c.179687 0 8.828125.085937 8.828125 17.566406zm0 0" fill="#cbb292" data-original="#cbb292" style=""/><path xmlns="http://www.w3.org/2000/svg" d="m158.039062 157.324219c.019532 1.5625-.25 3.121093-.792968 4.589843-5.070313 2.097657-10.488282 3.238282-15.976563 3.351563l-115.554687-48.636719c-3.1875-9.339844-3.125-19.480468.175781-28.78125h.089844c19.773437-9.886718 39.546875 0 69.121093 19.777344 15.910157 10.804688 32.414063 20.707031 49.433594 29.660156l4.679688 2.382813s8.824218 0 8.824218 17.65625zm0 0" fill="#fdd7ad" data-original="#fdd7ad" style="" class=""/><path xmlns="http://www.w3.org/2000/svg" d="m150.097656 182.921875c-.1875 7.003906-4.96875 13.042969-11.742187 14.832031-4.722657 1.757813-9.703125 2.710938-14.742188 2.824219l-107.785156-33.457031s-16.773437-22.332032-12.445313-37.605469c1.769532-5.863281 6.5-10.359375 12.445313-11.828125 3.207031-.933594 6.554687-1.292969 9.886719-1.058594 32.925781 1.5 100.371094 39.8125 115.554687 48.726563.175781 0 8.828125.089843 8.828125 17.566406zm0 0" fill="#cbb292" data-original="#cbb292" style=""/><path xmlns="http://www.w3.org/2000/svg" d="m138.707031 194.308594c.023438 1.160156-.09375 2.316406-.351562 3.445312-4.722657 1.757813-9.703125 2.710938-14.742188 2.824219l-107.785156-33.457031s-16.773437-22.332032-12.445313-37.605469c.335938-.183594.691407-.332031 1.058594-.441406 3.199219-.976563 6.554688-1.335938 9.886719-1.058594 32.925781 1.410156 100.457031 39.8125 115.550781 48.640625 0 0 8.828125 0 8.828125 17.652344zm0 0" fill="#fdd7ad" data-original="#fdd7ad" style="" class=""/><path xmlns="http://www.w3.org/2000/svg" d="m116.726562 208.257812c.015626 4.007813-1.574218 7.851563-4.414062 10.679688-1.5 1.339844-3.199219 2.441406-5.03125 3.269531-4.882812 2.429688-10.128906 4.039063-15.535156 4.765625-3.714844.398438-7.457032-.40625-10.683594-2.296875l-10.414062-6.441406-64.707032-11.566406c-6.546875-7.789063-7.800781-18.738281-3.179687-27.804688 4.691406-8.070312 13.664062-12.660156 22.953125-11.742187 24.378906.578125 48.203125 7.386718 69.207031 19.773437 5.03125 2.503907 9.921875 5.273438 14.65625 8.296875 4.441406 2.867188 7.128906 7.78125 7.148437 13.066406zm0 0" fill="#cbb292" data-original="#cbb292" style=""/><path xmlns="http://www.w3.org/2000/svg" d="m108.253906 216.820312c-.023437 1.835938-.351562 3.65625-.972656 5.386719-4.882812 2.429688-10.128906 4.039063-15.535156 4.765625-3.714844.398438-7.457032-.40625-10.683594-2.296875l-10.414062-6.441406-64.707032-11.566406c-6.546875-7.789063-7.800781-18.738281-3.179687-27.804688 4.496093-2.222656 9.464843-3.3125 14.480469-3.179687 24.378906.578125 48.203124 7.386718 69.207031 19.773437 5.027343 2.503907 9.921875 5.273438 14.652343 8.296875 4.441407 2.867188 7.132813 7.78125 7.152344 13.066406zm0 0" fill="#fdd7ad" data-original="#fdd7ad" style="" class=""/><path xmlns="http://www.w3.org/2000/svg" d="m460.296875 386.929688c-11.378906 18.007812-23.753906 35.367187-37.074219 51.992187-17.507812 21.011719-38.035156 39.308594-60.910156 54.289063-14.976562 10.039062-35.105469 7.183593-46.699219-6.621094l-5.738281-6.882813c6.445312-5.472656 47.582031-40.429687 71.945312-64.796875 22.722657-25.355468 43.386719-52.480468 61.792969-81.125l8.5625 6.796875c14.140625 11.109375 17.640625 31.089844 8.121094 46.347657zm0 0" fill="#06d6a0" data-original="#67b9cc" style="" class=""/><path xmlns="http://www.w3.org/2000/svg" d="m334.945312 247.628906c-7.769531 6.972656-98.605468 88.894532-114.230468 125.703125l-9.179688-10.945312c-10.34375-12.230469-11.105468-29.910157-1.851562-42.988281 11.402344-16.898438 23.9375-33 37.515625-48.199219 15.203125-15.074219 32.191406-28.234375 50.582031-39.195313 6.238281-3.40625 13.902344-2.78125 19.507812 1.589844zm0 0" fill="#06d6a0" data-original="#67b9cc" style="" class=""/></g></svg>
