<?xml version="1.0"?>
<svg xmlns="http://www.w3.org/2000/svg" xmlns:xlink="http://www.w3.org/1999/xlink" xmlns:svgjs="http://svgjs.com/svgjs" version="1.1" width="512" height="512" x="0" y="0" viewBox="0 0 504 504.01114" style="enable-background:new 0 0 512 512" xml:space="preserve" class=""><g><path xmlns="http://www.w3.org/2000/svg" d="m234.3125 104.824219s43.386719 52.066406 95.457031-8.675781l-52.070312-43.390626-43.386719 26.03125zm0 0" fill="#cbb292" data-original="#cbb292" style="" class=""/><path xmlns="http://www.w3.org/2000/svg" d="m494.910156 420.269531-33.929687 25.597657c-1.605469 1.1875-3.394531 2.09375-5.292969 2.691406-10.414062 3.296875-52.15625 15.792968-164.882812 44.171875-48.117188 12.382812-99.019532 8.003906-144.316407-12.410157-2.6875-1.214843-5.292969-2.429687-7.894531-3.644531v.085938c-3.191406 1.699219-6.464844 3.234375-9.808594 4.601562-23.847656 8.929688-48.183594 16.492188-72.894531 22.648438h-55.88671875v-326.8125c11.02343775 4.859375 21.95703175 9.804687 32.97656275 14.753906 19.207031 7.542969 37.90625 16.324219 55.972656 26.292969 19.441406 12.0625 31.761719 30.894531 45.214844 48.941406 0 .089844.085937.089844.085937.175781l1.214844 8.417969c2.691406-.867188 5.378906-1.648438 8.242188-2.515625 29.550781-8.921875 60.753906-10.941406 91.207031-5.902344 59.183593 11.195313 122.96875 101.359375 122.96875 101.359375-11.53125-32.339844-21.09375-65.347656-28.640625-98.84375-7.808594-39.484375-3.210938-78.621094-4.511719-118.453125-.175781-6.933593-2.511719-13.636719-6.679687-19.179687l-31.675782-53.457032-171.304687 32.890626s-16.835938-62.566407 24.90625-89.296876c2.503906-1.667968 5.148437-3.117187 7.898437-4.335937 36.96875-16.402344 154.121094-23.953125 176.507813-12.671875 22.390625 11.28125 89.472656 115.417969 123.054687 194.300781 27.855469 65.691407 48.074219 170.347657 54.0625 203.671875 1.136719 6.429688-1.40625 12.957032-6.59375 16.921875zm0 0" fill="#fdd7ad" data-original="#fdd7ad" style="" class=""/><g xmlns="http://www.w3.org/2000/svg" fill="#cbb292"><path d="m138.070312 284.023438c-19.253906 6.070312-37.765624 14.28125-55.191406 24.472656-1.378906.863281-2.972656 1.3125-4.597656 1.300781-3.882812.015625-7.300781-2.554687-8.371094-6.285156-1.070312-3.734375.472656-7.722657 3.769532-9.769531 18.648437-10.996094 38.507812-19.789063 59.183593-26.207032.4375-.085937.871094-.257812 1.304688-.347656 0 .089844.085937.089844.085937.175781l1.214844 8.417969c2.691406-.867188 5.378906-1.648438 8.242188-2.515625.71875 2.171875.527343 4.546875-.539063 6.574219-1.0625 2.027344-2.902344 3.539062-5.101563 4.183594zm0 0" fill="#cbb292" data-original="#cbb292" style="" class=""/><path d="m146.488281 480.320312c-2.6875-1.214843-5.292969-2.429687-7.894531-3.644531v.085938c-3.191406 1.699219-6.464844 3.234375-9.808594 4.601562-25.457031-12.808593-48.527344-29.894531-68.207031-50.507812-3.121094-3.609375-2.773437-9.050781.78125-12.234375 1.714844-1.542969 3.980469-2.332032 6.28125-2.183594 2.304687.144531 4.449219 1.214844 5.953125 2.964844 19.828125 20.433594 43.128906 37.183594 68.816406 49.464844 4.195313 2.117187 5.992188 7.15625 4.078125 11.453124zm0 0" fill="#cbb292" data-original="#cbb292" style="" class=""/><path d="m228.445312 458.496094c-70.085937 0-95.847656-43.390625-97.125-45.636719-2.394531-4.15625-.972656-9.464844 3.179688-11.859375 4.152344-2.398438 9.464844-.972656 11.859375 3.179688 1.355469 2.292968 33.417969 54.59375 129.242187 30.632812 3.035157-.832031 6.285157.046875 8.488282 2.292969 2.203125 2.246093 3.019531 5.511719 2.128906 8.53125s-3.347656 5.320312-6.417969 6.011719c-16.773437 4.375-34.023437 6.671874-51.355469 6.847656zm0 0" fill="#cbb292" data-original="#cbb292" style="" class=""/></g><path xmlns="http://www.w3.org/2000/svg" d="m216.953125 234.996094c-4.792969 0-8.675781-3.886719-8.675781-8.679688v-52.066406c0-4.792969 3.882812-8.679688 8.675781-8.679688s8.679687 3.886719 8.679687 8.679688v52.066406c0 4.792969-3.886718 8.679688-8.679687 8.679688zm0 0" fill="#ffd116" data-original="#67b9cc" style="" class=""/><path xmlns="http://www.w3.org/2000/svg" d="m277.699219 243.671875c-2.785157 0-5.402344-1.34375-7.035157-3.605469-1.628906-2.261718-2.070312-5.167968-1.191406-7.8125l8.679688-26.035156c.980468-2.945312 3.457031-5.144531 6.496094-5.769531 3.039062-.625 6.183593.421875 8.246093 2.742187 2.058594 2.320313 2.726563 5.566406 1.746094 8.511719l-8.679687 26.035156c-1.183594 3.550781-4.515626 5.945313-8.261719 5.933594zm0 0" fill="#ffd116" data-original="#67b9cc" style="" class=""/><path xmlns="http://www.w3.org/2000/svg" d="m156.207031 243.671875c-3.730469-.003906-7.046875-2.394531-8.226562-5.933594l-8.675781-26.035156c-.980469-2.945313-.3125-6.191406 1.746093-8.511719 2.0625-2.320312 5.203125-3.367187 8.246094-2.742187 3.039063.625 5.515625 2.824219 6.496094 5.769531l8.675781 26.035156c.882812 2.648438.4375 5.5625-1.199219 7.828125-1.640625 2.261719-4.265625 3.597657-7.0625 3.589844zm0 0" fill="#ffd116" data-original="#67b9cc" style="" class=""/><path xmlns="http://www.w3.org/2000/svg" d="m164.886719 104.21875v10.933594c.027343 2.503906-.351563 4.996094-1.128907 7.375-.839843 2.757812-2.164062 5.339844-3.902343 7.636718-4.699219 6.242188-12.0625 9.90625-19.875 9.894532-1.632813 0-3.261719-.171875-4.859375-.523438-11.679688-2.246094-20.101563-12.492187-20.046875-24.382812v-10.933594c.003906-11.875 8.398437-22.085938 20.046875-24.386719 1.597656-.347656 3.226562-.523437 4.859375-.519531 4.222656-.007812 8.375 1.070312 12.0625 3.125 2.03125 1.128906 3.898437 2.53125 5.554687 4.164062 1.59375 1.601563 2.96875 3.410157 4.078125 5.378907v.085937c2.121094 3.699219 3.230469 7.890625 3.210938 12.152344zm0 0" fill="#fdd7ad" data-original="#fdd7ad" style="" class=""/><path xmlns="http://www.w3.org/2000/svg" d="m210.445312 99.269531v10.933594c.023438 2.476563-.359374 4.9375-1.128906 7.292969-.820312 2.789062-2.144531 5.40625-3.902344 7.722656-4.710937 6.226562-12.066406 9.886719-19.875 9.890625h-.085937c-1.632813.003906-3.261719-.171875-4.859375-.519531-4.183594-.851563-8.089844-2.730469-11.367188-5.46875-2.1875-1.867188-4.035156-4.097656-5.46875-6.59375-2.09375-3.769532-3.199218-8.007813-3.210937-12.324219v-10.933594c-.035156-2.445312.347656-4.882812 1.128906-7.203125v-.085937c1.375-4.527344 4.027344-8.566407 7.636719-11.628907 3.253906-2.71875 7.128906-4.597656 11.28125-5.464843 1.597656-.351563 3.226562-.523438 4.859375-.523438h.085937c4.261719-.015625 8.453126 1.089844 12.152344 3.210938 4.019532 2.285156 7.347656 5.613281 9.628906 9.632812 2.054688 3.6875 3.132813 7.84375 3.125 12.0625zm0 0" fill="#fdd7ad" data-original="#fdd7ad" style="" class=""/><path xmlns="http://www.w3.org/2000/svg" d="m256.003906 94.410156v10.933594c0 13.757812-11.148437 24.90625-24.902344 24.90625-1.605468.003906-3.207031-.171875-4.773437-.519531-.089844 0-.175781.085937-.261719 0-4.183594-.828125-8.074218-2.742188-11.28125-5.554688-2.1875-1.902343-4.035156-4.160156-5.46875-6.679687-2.0625-3.714844-3.140625-7.898438-3.121094-12.152344v-10.933594c-.027343-2.445312.351563-4.878906 1.125-7.203125 1.363282-4.582031 4.015626-8.679687 7.636719-11.800781 3.210938-2.671875 7.023438-4.519531 11.109375-5.378906h.261719c1.566406-.351563 3.167969-.523438 4.773437-.523438 6.605469-.003906 12.941407 2.621094 17.613282 7.292969 4.671875 4.667969 7.296875 11.007813 7.289062 17.613281zm0 0" fill="#fdd7ad" data-original="#fdd7ad" style="" class=""/><path xmlns="http://www.w3.org/2000/svg" d="m172.4375 121.832031c.21875 2.816407-.988281 5.554688-3.210938 7.289063-2.1875-1.867188-4.035156-4.097656-5.46875-6.59375-.839843 2.757812-2.164062 5.339844-3.902343 7.636718-2.6875-1.359374-4.464844-4.027343-4.6875-7.027343l-3.125-40.699219-.171875-2.519531c-.351563-4.765625 3.21875-8.914063 7.984375-9.285157 4.816406-.359374 9.011719 3.253907 9.371093 8.070313l.085938 1.648437zm0 0" fill="#cbb292" data-original="#cbb292" style="" class=""/><path xmlns="http://www.w3.org/2000/svg" d="m217.996094 116.886719c.21875 2.816406-.984375 5.550781-3.210938 7.289062-2.1875-1.902343-4.035156-4.160156-5.46875-6.679687-.820312 2.789062-2.144531 5.40625-3.902344 7.722656-2.71875-1.371094-4.503906-4.078125-4.6875-7.117188l-3.035156-40.527343-.175781-2.601563c-.214844-3.101562 1.238281-6.082031 3.8125-7.820312 2.578125-1.738282 5.886719-1.96875 8.679687-.605469 2.792969 1.359375 4.648438 4.109375 4.863282 7.210937l.085937 1.648438zm0 0" fill="#cbb292" data-original="#cbb292" style="" class=""/><path xmlns="http://www.w3.org/2000/svg" d="m282.222656 96.058594c-17.15625-1.375-33.480468-7.964844-46.785156-18.882813-3.898438-2.785156-4.804688-8.203125-2.019531-12.105469 2.785156-3.902343 8.203125-4.804687 12.105469-2.019531 18.683593 13.34375 34 18.34375 44.328124 14.300781 7.070313-3.554687 12.21875-10.042968 14.074219-17.738281.652344-3.03125 2.871094-5.488281 5.820313-6.441406 2.953125-.949219 6.1875-.253906 8.488281 1.824219s3.316406 5.230468 2.664063 8.261718c-3.097657 13.390626-12.242188 24.582032-24.75 30.285157-4.445313 1.699219-9.167969 2.550781-13.925782 2.515625zm0 0" fill="#cbb292" data-original="#cbb292" style="" class=""/></g></svg>
