<?xml version="1.0"?>
<svg xmlns="http://www.w3.org/2000/svg" xmlns:xlink="http://www.w3.org/1999/xlink" xmlns:svgjs="http://svgjs.com/svgjs" version="1.1" width="512" height="512" x="0" y="0" viewBox="0 0 464 464" style="enable-background:new 0 0 512 512" xml:space="preserve" class=""><g><path xmlns="http://www.w3.org/2000/svg" d="m385.873 195.06c.332-.117 8.691-30.37 25.012-87.097 2.407-8.367-2.32-17.118-10.636-19.699-.49-.152-98.823-30.671-98.836-30.675l-10.259-45.136c-1.657-7.284-8.133-12.453-15.603-12.453h-87.017c-7.47 0-13.946 5.169-15.602 12.454l-10.26 45.136c-1.231.382-99.354 30.835-98.92 30.701-8.309 2.578-13.035 11.324-10.639 19.687l24.929 87.022c1.019.36-18.815 39.083 10.85 83.45 11.684 17.532 16.479 47.446 19.5 64.55 4.794 33.949 3.349 68.233-4.174 101.436-2.271 10.022 5.314 19.564 15.59 19.564h224.467c10.286 0 17.858-9.556 15.586-19.587-7.363-32.507-9.092-66.888-4.099-101.813 3.61-20.42 7.91-46.83 19.36-64.05 18.167-27.314 20.52-57.251 10.751-83.49z" fill="#fdd7ad" data-original="#ffebd2" style="" class=""/><path xmlns="http://www.w3.org/2000/svg" d="m355.692 343c-1.33 9.4-2.27 19.42-2.61 30h-242.08c-.34-10.58-1.28-20.6-2.61-30z" fill="#cbb292" data-original="#ffdfba" style="" class=""/><path xmlns="http://www.w3.org/2000/svg" d="m199.22 13.389-11.946 52.565c-.867 3.816-3.699 6.879-7.437 8.038-17.004 5.274-38.509 11.959-92.885 28.829-8.31 2.58-13.04 11.32-10.64 19.69l14.22 49.65c-4.49 6.21-8.96 13.86-12.32 22.9-.264-.093 1.736 6.591-25.1-87.08-2.4-8.37 2.33-17.11 10.64-19.69 35.716-11.082 98.92-30.7 98.92-30.7l10.26-45.14c1.66-7.28 8.13-12.45 15.6-12.45 7.033-.001 12.246 6.529 10.688 13.388z" fill="#fff3e4" data-original="#fff3e4" style="" class=""/><path xmlns="http://www.w3.org/2000/svg" d="m355.692 343h-247.3c-.244-1.382-5.785-43.971-19.5-64.55-23.5-35.148-21.32-77.285 4.21-109.69 9.93-12.58 15.22-28.2 15.22-44.23v-50.07l49.8-15.46v34.59c0 20.41 8.28 38.89 21.65 52.27 46.149 46.149 126.19 13.774 126.19-52.27v-34.59l49.8 15.46v50.07c0 16.03 5.29 31.65 15.22 44.23 25.037 31.78 28.174 73.654 4.14 109.79-10.915 16.417-16.316 44.212-19.43 64.45z" fill="#fe2693" data-original="#fff8bf" style="" class=""/><path xmlns="http://www.w3.org/2000/svg" d="m410.883 107.96c-26.23 91.256-24.598 86.954-25.01 87.1-6.269-16.878-14.679-25.381-18.69-31.62 5.59-19.63 14.42-50.63 19.7-68.98 1.04-3.61.75-7.3-.58-10.53l13.95 4.33c8.31 2.59 13.039 11.34 10.63 19.7z" fill="#cbb292" data-original="#ffdfba" style="" class=""/><path xmlns="http://www.w3.org/2000/svg" d="m158.123 59v16.21l-14.9 4.625c-8.861 2.75-14.9 10.948-14.9 20.226v34.469c0 16.03-5.29 31.65-15.22 44.23-25.203 31.989-27.976 74.145-4.21 109.69 8.84 13.27 14.67 36.4 17.9 54.55h-18.4c-.244-1.383-5.785-43.971-19.5-64.55-23.781-35.567-20.983-77.713 4.21-109.69 9.93-12.58 15.22-28.2 15.22-44.23v-50.07z" fill="#fe2693" data-original="#fffad9" style="" class=""/><path xmlns="http://www.w3.org/2000/svg" d="m375.192 278.45c-13.72 20.58-19.26 63.17-19.5 64.55h-18.4c3.23-18.15 9.06-41.28 17.9-54.55 23.77-35.55 20.99-77.7-4.21-109.69-9.93-12.58-15.22-28.2-15.22-44.23v-66.28l20 6.21v50.07c0 16.03 5.29 31.65 15.22 44.23 25.19 31.98 27.99 74.12 4.21 109.69z" fill="#fe2693" data-original="#fff4a6" style="" class=""/><path xmlns="http://www.w3.org/2000/svg" d="m315.962 62.1v41.49c0 40.82-33.1 73.92-73.92 73.92-22.618 0-43.281-10.21-57.02-26.88 47.717 39.391 120.94 5.715 120.94-57.04v-34.59z" fill="#fe2693" data-original="#fffad9" style="" class=""/><path xmlns="http://www.w3.org/2000/svg" d="m232.042 402c-8.837 0-16 7.164-16 16v12c0 8.836 7.163 16 16 16s16-7.164 16-16v-12c0-8.836-7.163-16-16-16z" fill="#cbb292" data-original="#ffdfba" style="" class=""/></g></svg>
