<?xml version="1.0"?>
<svg xmlns="http://www.w3.org/2000/svg" xmlns:xlink="http://www.w3.org/1999/xlink" xmlns:svgjs="http://svgjs.com/svgjs" version="1.1" width="512" height="512" x="0" y="0" viewBox="0 0 496 496" style="enable-background:new 0 0 512 512" xml:space="preserve" class=""><g><path xmlns="http://www.w3.org/2000/svg" d="m297.672 34.094c28.268 3.544 54.781 17.794 73.851 41.736 24.332 30.549 16.01 62.076 16.675 83.307 1.121 35.795 15.173 61.352 29.678 94.007 2.703 6.085-39.841 7.343-39.841 7.343s-10.389 62.602-25.176 78.113c-10.549 11.065-34.877-1.36-55.082.166-7.417.56-24.944 67.929-23.929 136.048h-90.735s7.141-135.854 0-144.435-102.299-89.013-82.836-187.336c22.666-114.503 135.995-116.645 197.395-108.949z" fill="#fdd7ad" data-original="#ffc7b3" style="" class=""/><path xmlns="http://www.w3.org/2000/svg" d="m210.147 239.982s22.659 26.492-.108 97.605c-13.708 42.818 10.167 109.793 18.421 130.735 3.261-4.82 6.137-9.695 8.412-14.521-3.039-8.428-6.741-19.606-9.987-32.032-2.818-10.785 2.239-20.945.905-30.382-1.192-8.432-8.926-16.287-8.926-23.497 0-10.111 1.176-18.952 3.54-26.334 24.278-75.837.407-106.755-2.394-110.03-1.225-1.432-.691-.957-2.295-2.108-20.363-14.622-18.767-41.593 2.005-42.501 10.452-.432 19.987 11.306 25.562 20.142l3.354 5.314c5.212 8.259 17.857 5.679 19.427-3.963l1.01-6.204c3.145-19.151 10.394-36.656 14.607-39.159 13.294-3.524 30.093 3.593 48.939-15.276 10.158-10.171 28.132-25.557 41.459-37.573.271 1.197 6.828-5.098 10.931-9.293-1.415-4.468-3.282-8.98-5.759-13.503-11.027 11.612-40.851 36.197-55.812 51.177s-26.93 7.49-43.387 11.984-23.792 49.552-23.792 49.552c-8.334-13.208-20.93-26.891-37.104-26.185-32.73 1.428-40.234 43.631-9.008 66.052z" fill="#cbb292" data-original="#ffad9b" style="" class=""/><path xmlns="http://www.w3.org/2000/svg" d="m296.237 6.054c-69.449-16.999-229.291-10.428-217.632 185.758 5.156 86.753 41.722 78.521 34.866 172.342-1.967 26.919-20.568 49.249-9.142 107.576 0 0 22.88 20.587 58.36 23.971 34.015 3.244 68.426-20.887 68.426-20.887s-37.494-85.946-21.077-137.226c22.767-71.114.108-97.605.108-97.605-31.225-22.421-23.721-64.624 9.005-66.053 16.174-.706 28.77 12.978 37.104 26.185 0 0 7.335-45.058 23.792-49.552s28.426 2.996 43.387-11.984 44.786-39.567 55.813-51.178c28.218-29.716-54.803-74.443-83.01-81.347z" fill="#ffc449" data-original="#ffc449" style="" class=""/><path xmlns="http://www.w3.org/2000/svg" d="m82.794 204.794c-8.157-137.248 69.986-179.082 139.637-185.601 9-.842 11.886 6.459 20.398 6.667 5.983.146 17.767-7.036 23.337-6.481 10.439 1.041 20.027 2.721 28.298 4.745 22.391 5.48 80.285 35.465 85.896 62.018 24.783-29.704-56.311-73.281-84.123-80.088-69.449-16.999-229.291-10.428-217.632 185.758 1.635 27.511 6.43 45.465 11.996 60.155-3.68-12.209-6.612-27.064-7.807-47.173z" fill="#ffe297" data-original="#ffe297" style="" class=""/><path xmlns="http://www.w3.org/2000/svg" d="m365.593 294.225c-12.447 5.712-23.428.434-24.003.149-3.911-2.005-8.709-.477-10.74 3.426-2.041 3.918-.519 8.75 3.4 10.791 7.76 4.043 20.294 5.832 31.835 2.466 1.811-5.655 3.453-11.576 4.899-17.294-1.735-.461-3.634-.345-5.391.462z" fill="#804e5f" data-original="#804e5f" style="" class=""/><path xmlns="http://www.w3.org/2000/svg" d="m229.354 203.17c4.058 4.45 4.248 10.891.425 14.386s-10.212 2.721-14.27-1.729-4.248-10.891-.425-14.386 10.212-2.721 14.27 1.729z" fill="#cbb292" data-original="#ffad9b" style="" class=""/><ellipse xmlns="http://www.w3.org/2000/svg" cx="229.767" cy="363.871" fill="#cbb292" rx="6.407" ry="8.865" data-original="#ffad9b" style="" class=""/><ellipse xmlns="http://www.w3.org/2000/svg" cx="269.97" cy="28.968" fill="#ffe297" rx="6.708" ry="4.402" data-original="#ffe297" style="" class=""/><g xmlns="http://www.w3.org/2000/svg" fill="#ed725f"><path d="m340.292 419.734-12.678-10.686 1.646-.422c4.28-1.098 6.859-5.456 5.762-9.736-1.098-4.279-5.457-6.857-9.737-5.762l-16.688 4.279c-3.311.849-5.717 3.708-5.988 7.115l-1.366 17.195c-.35 4.404 2.937 8.259 7.341 8.608 4.385.357 8.258-2.927 8.609-7.341l.134-1.682 12.653 10.666c3.371 2.84 8.419 2.424 11.272-.961 2.849-3.379 2.419-8.425-.96-11.273z" fill="#13a4e7" data-original="#ed725f" style="" class=""/><path d="m377.668 371.009c.546-4.385-2.565-8.382-6.949-8.928l-17.095-2.13c-3.397-.432-6.683 1.358-8.181 4.435l-7.554 15.503c-2.601 5.338 1.33 11.506 7.186 11.506 2.963 0 5.812-1.654 7.197-4.498l.735-1.508 7.88 14.563c1.448 2.676 4.2 4.194 7.043 4.194 5.983 0 9.934-6.442 7.029-11.81l-7.893-14.586 1.674.208c4.383.551 8.382-2.563 8.928-6.949z" fill="#13a4e7" data-original="#ed725f" style="" class=""/><path d="m333.538 466.237-15.075-6.884 1.477-.852c3.828-2.207 5.141-7.1 2.934-10.927-2.208-3.828-7.1-5.142-10.927-2.933l-14.928 8.609c-2.96 1.706-4.509 5.104-3.856 8.458l3.295 16.931c.744 3.821 4.092 6.474 7.844 6.474 5.033 0 8.824-4.586 7.861-9.53l-.324-1.665 15.053 6.874c4.044 1.847 8.777.039 10.601-3.954 1.835-4.02.065-8.765-3.955-10.601z" fill="#13a4e7" data-original="#ed725f" style="" class=""/></g></g></svg>
