<?xml version="1.0"?>
<svg xmlns="http://www.w3.org/2000/svg" xmlns:xlink="http://www.w3.org/1999/xlink" xmlns:svgjs="http://svgjs.com/svgjs" version="1.1" width="512" height="512" x="0" y="0" viewBox="0 0 58 58" style="enable-background:new 0 0 512 512" xml:space="preserve" class=""><g><g xmlns="http://www.w3.org/2000/svg" id="Page-1" fill="none" fill-rule="evenodd"><g id="060---Shrinking-Waistline" fill-rule="nonzero"><path id="Shape" d="m50.89 44.42c-.43-3.16-1.18-5.67-2.01-10.07-.24-1.27-.49-2.71-.74-4.37l-.61-17.86c.2332043-3.67239582.6537517-7.33049062 1.26-10.96.0469897-.28989435-.035826-.58578976-.2264729-.80917402-.1906469-.22338425-.4698503-.35167285-.7635271-.35082598h-37.6c-.29367678-.00084687-.57288023.12744173-.76352713.35082598-.19064691.22338426-.27346257.51927967-.22647287.80917402.60624829 3.62950938 1.0267957 7.28760418 1.26 10.96l-.61 17.86c-.25 1.66-.5 3.1-.74 4.37-.83 4.4-1.58 6.91-2.01 10.07-.46787876 4.1944154-.52481591 8.4245112-.17 12.63.03010189.5310821.46807306.9471547 1 .95h16.75c.4012802-.000327.7635008-.2404951.92-.61.4853915-1.2100888.9059872-2.4451715 1.26-3.7 1.3899253.4133091 2.8700747.4133091 4.26 0 .3540128 1.2548285.7746085 2.4899112 1.26 3.7.1564992.3695049.5187198.609673.92.61h16.75c.5319269-.0028453.9698981-.4189179 1-.95.3548159-4.2054888.2978788-8.4355846-.17-12.63z" fill="#fdd7ad" data-original="#fdd7ad" style="" class=""/><path id="Shape" d="m58 18v6c-.0032948 1.1032019-.8967981 1.9967052-2 2h-7v3c.0041977.4978107-.3658608.9195054-.86.98-.2784316.0529168-.5657726-.0244442-.78-.21l-10-8c-.2292703-.1899799-.3619561-.4722463-.3619561-.77s.1326858-.5800201.3619561-.77l10-8c.0502448-.0457492.1076797-.082913.17-.11.3095239-.1648161.6827633-.1554601.9836407.024657s.4854249.5046743.4863593.855343v3h7c1.1045695 0 2 .8954305 2 2z" fill="#fe2693" data-original="#e64c3c" style="" class=""/><path id="Shape" d="m20.64 21.77-10 8c-.2142274.1855558-.5015684.2629168-.78.21-.4941392-.0604946-.86419774-.4821893-.86-.98v-3h-7c-1.10320187-.0032948-1.9967052-.8967981-2-2v-6c0-1.1045695.8954305-2 2-2h7v-3c.00093437-.3506687.18548188-.6752259.4863593-.855343.30087743-.1801171.6741168-.1894731.9836407-.024657.0623203.027087.1197552.0642508.17.11l10 8c.2292703.1899799.3619561.4722463.3619561.77s-.1326858.5800201-.3619561.77z" fill="#fe2693" data-original="#e64c3c" style="" class=""/><path id="Shape" d="m50.89 44.42c-2.6316018-.5614983-5.3687954-.3602851-7.89.58-3.98 1.59-6.7 6.36-10.67 8.23-.3867357.1859187-.7880841.3397689-1.2.46-1.3899253.4133091-2.8700747.4133091-4.26 0-.4119159-.1202311-.8132643-.2740813-1.2-.46-3.97-1.87-6.69-6.64-10.67-8.23-2.5212046-.9402851-5.25839817-1.1414983-7.89-.58.43-3.16 1.18-5.67 2.01-10.07 8.84 2.65 19.88 2.65 19.88 2.65s11.04 0 19.88-2.65c.83 4.4 1.58 6.91 2.01 10.07z" fill="#000000" data-original="#3b97d3" style="" class=""/><path id="Shape" d="m29 23c-.5522847 0-1-.4477153-1-1v-2c0-.5522847.4477153-1 1-1s1 .4477153 1 1v2c0 .5522847-.4477153 1-1 1z" fill="#f09372" data-original="#f09372" style="" class=""/><path id="Shape" d="m14.238 9.979c-.5173988-.00053379-.9489518-.3956541-.995-.911-.147-1.65-.333-3.31-.551-4.935-.0383789-.28599847.0486577-.57463431.238745-.79174003s.4646931-.34151506.753255-.34125997h6.316c.5522847.00000001 1 .44771526 1 1s-.4477153.99999999-1 1h-5.18c.159 1.288.3 2.592.415 3.889.0238852.26415894-.0581526.52698601-.2280636.73065413-.169911.20366813-.4137747.33149128-.6779364.35534587-.029.003-.061.004-.091.004z" fill="#f9c795" data-original="#f9c795" style=""/></g></g></g></svg>
